<svg xmlns="http://www.w3.org/2000/svg" viewBox="0 0 320 64" role="img" aria-label="Westminster Leak Repair Pros">
  <title>Westminster Leak Repair Pros</title>
  <g transform="translate(4,4) scale(0.73)">
    <path d="M38 4 L68 14 L68 42 Q68 62 38 74 Q8 62 8 42 L8 14 Z" fill="rgba(255,255,255,0.18)"/>
    <path d="M38 4 L68 14 L68 42 Q68 62 38 74 L38 4 Z" fill="rgba(255,255,255,0.10)"/>
    <path d="M38 10 L62 18 L62 40 Q62 57 38 67 Q14 57 14 40 L14 18 Z" fill="rgba(255,255,255,0.14)"/>
    <rect x="24" y="42" width="5" height="15" rx="2.5" fill="white" transform="rotate(-35 26.5 49.5)"/>
    <circle cx="30" cy="37" r="3.5" fill="white"/>
    <path d="M36 31 Q42 34 42 37 Q42 40 36 43" fill="none" stroke="white" stroke-width="2.2" stroke-linecap="round"/>
    <path d="M39 25 Q49 30 49 37 Q49 44 39 49" fill="none" stroke="white" stroke-width="2.2" stroke-linecap="round" opacity="0.65"/>
  </g>
  <text x="62" y="28" font-family="Georgia,'Times New Roman',serif" font-weight="700" font-size="22" fill="white" letter-spacing="0.04em">WESTMINSTER</text>
  <text x="62" y="50" font-family="Arial,system-ui,sans-serif" font-weight="600" font-size="13" fill="rgba(255,255,255,0.78)" letter-spacing="0.12em">LEAK REPAIR PROS</text>
</svg>
